<svg xmlns="http://www.w3.org/2000/svg" xmlns:xlink="http://www.w3.org/1999/xlink" width="48" zoomAndPan="magnify" viewBox="0 0 36 36.000001" height="48" preserveAspectRatio="xMidYMid meet" version="1.0"><defs><g/></defs><g fill="#fb923c" fill-opacity="1"><g transform="translate(0.486486, 32.764102)"><g><path d="M 19.140625 0.640625 C 15.785156 0.640625 12.773438 -0.0664062 10.109375 -1.484375 C 7.453125 -2.898438 5.359375 -4.867188 3.828125 -7.390625 C 2.304688 -9.921875 1.546875 -12.785156 1.546875 -15.984375 C 1.546875 -19.179688 2.304688 -22.039062 3.828125 -24.5625 C 5.359375 -27.09375 7.453125 -29.066406 10.109375 -30.484375 C 12.773438 -31.898438 15.785156 -32.609375 19.140625 -32.609375 C 22.054688 -32.609375 24.6875 -32.085938 27.03125 -31.046875 C 29.375 -30.015625 31.328125 -28.523438 32.890625 -26.578125 L 27.125 -21.375 C 25.0625 -23.875 22.550781 -25.125 19.59375 -25.125 C 17.851562 -25.125 16.304688 -24.742188 14.953125 -23.984375 C 13.597656 -23.222656 12.546875 -22.148438 11.796875 -20.765625 C 11.054688 -19.378906 10.6875 -17.785156 10.6875 -15.984375 C 10.6875 -14.191406 11.054688 -12.601562 11.796875 -11.21875 C 12.546875 -9.832031 13.597656 -8.753906 14.953125 -7.984375 C 16.304688 -7.222656 17.851562 -6.84375 19.59375 -6.84375 C 22.550781 -6.84375 25.0625 -8.09375 27.125 -10.59375 L 32.890625 -5.390625 C 31.328125 -3.441406 29.375 -1.945312 27.03125 -0.90625 C 24.6875 0.125 22.054688 0.640625 19.140625 0.640625 Z M 19.140625 0.640625 "/></g></g></g></svg>